<svg xmlns="http://www.w3.org/2000/svg" viewBox="0 0 1786 388" fill="none">
  <!-- FarmGuide Logo - Dark version for light backgrounds -->
  <!-- Leaf icon paths -->
  <path fill="#1F6124" d="M246.176331,221.035828 C232.985748,230.558746 221.578537,241.432678 216.126785,256.680878 C206.014557,284.964172 206.376938,312.282593 226.939728,336.484283 C230.206192,340.328766 234.710724,343.198212 238.902115,346.150330 C241.307907,347.844818 244.143539,349.024963 242.718033,352.610779 C241.356674,356.035248 239.774124,359.432922 235.117203,359.356628 C225.485260,359.198883 217.779236,354.783081 211.428101,348.064636 C196.450821,332.221191 191.281754,312.616608 189.839645,291.452271 C189.109146,280.731232 188.613602,269.650360 185.492081,259.507629 C178.986176,238.368103 163.281357,224.852127 143.885223,215.397705 C138.478470,212.762253 132.773575,210.738480 127.205444,208.434097 C126.869484,208.959091 126.533524,209.484100 126.197563,210.009094 C127.151199,211.170471 127.953331,212.510605 129.081161,213.466446 C146.403458,228.147659 162.522614,244.017044 176.419754,262.010223 C179.433914,265.912750 181.728043,270.425201 183.978638,274.847656 C185.996216,278.812225 184.435593,281.645477 180.189560,282.783813 C170.966461,285.256470 161.611877,286.821106 152.054398,285.339661 C110.675163,278.925934 88.341782,252.504730 77.604622,214.086960 C73.766006,200.352295 72.684868,186.285736 72.988533,172.050781 C73.092392,167.182129 74.687782,164.899872 79.853722,164.521027 C112.914474,162.096420 142.737152,170.101837 167.884537,192.249069 C181.619537,204.345428 189.957062,219.997162 194.498413,237.677902 C194.929260,239.355347 195.328461,241.040924 195.742340,242.722717 C196.202225,242.776688 196.662094,242.830658 197.121964,242.884628 C198.153549,240.417740 199.171509,237.945068 200.218750,235.484848 C220.938629,186.808472 267.953186,162.270020 317.013519,164.029205 C318.844696,164.094849 320.673828,164.222534 322.503021,164.335678 C330.721405,164.843994 331.247375,164.812027 331.756897,172.733307 C333.732910,203.452805 328.276947,232.316437 307.596893,256.366241 C288.887848,278.123901 264.800903,287.911407 236.073730,285.634064 C232.121811,285.320770 228.202744,284.269714 224.335464,283.294525 C219.562012,282.090820 218.455566,279.842926 220.116913,275.153748 C225.010117,261.342743 233.511963,249.804871 243.901260,239.825562 C253.845291,230.273941 264.604736,221.571564 274.995911,212.484619 C276.057220,211.556534 277.050873,210.551117 277.735657,208.967041 C265.981628,209.551941 256.185486,215.065552 246.176331,221.035828z"/>
  <path fill="#A6D894" d="M1125.010132,223.982819 C1110.158203,223.983002 1110.158203,223.983002 1110.158203,209.678665 C1110.158203,204.373032 1110.158203,199.067383 1110.158203,193.233047 C1112.117554,193.087723 1113.699463,192.869446 1115.281738,192.868118 C1140.772583,192.846786 1166.264404,192.969131 1191.753296,192.744888 C1196.284912,192.705032 1197.288208,194.108566 1197.259399,198.406189 C1197.074341,225.895035 1197.082275,253.386276 1197.253662,280.875305 C1197.279541,285.028839 1196.100342,286.317017 1191.931152,286.199127 C1181.960327,285.917206 1171.976074,286.108093 1161.413330,286.108093 C1161.413330,279.843109 1161.413330,273.946533 1161.413330,270.048401 C1158.197876,272.581177 1154.269165,275.814697 1150.195190,278.853516 C1143.345337,283.962982 1135.420166,286.630615 1127.087280,287.593994 C1107.510132,289.857269 1088.169189,288.645172 1069.701050,281.196625 C1044.736206,271.127838 1030.736572,251.750015 1025.413696,226.050903 C1020.875000,204.138397 1021.984253,182.399033 1030.706055,161.413452 C1039.351685,140.610733 1055.171143,127.699532 1076.172485,121.086929 C1099.997192,113.585327 1124.174072,113.841492 1147.875977,121.351761 C1174.245850,129.707413 1190.368652,148.073730 1197.160522,175.416992 C1195.441895,175.639526 1194.206909,175.933258 1192.970825,175.938263 C1183.474487,175.976822 1173.974365,176.090485 1164.484253,175.842377 C1162.704712,175.795853 1159.921143,174.658875 1159.368896,173.304321 C1154.145996,160.493713 1143.650513,155.252686 1131.030640,153.253403 C1117.964355,151.183411 1104.861084,151.423569 1091.801758,153.774857 C1074.194458,156.944992 1063.802490,167.241821 1060.488159,184.834854 C1058.014404,197.966415 1058.226685,211.072937 1061.621216,223.920502 C1065.341553,238.000381 1074.676880,247.131760 1088.973022,250.065964 C1107.072266,253.780731 1125.288574,254.567596 1143.070190,248.133911 C1151.878784,244.946777 1157.735962,238.575348 1160.692871,229.689285 C1162.174927,225.235687 1161.194214,224.001923 1156.496826,223.987930 C1146.167236,223.957138 1135.837402,223.981171 1125.010132,223.982819z"/>
  <path fill="#74C156" d="M817.781494,241.000000 C817.781372,256.123810 817.781372,270.747620 817.781372,286.107788 C807.021423,286.107788 796.767273,286.164001 786.516663,285.998352 C785.718506,285.985474 784.698303,284.534058 784.237244,283.539825 C783.854187,282.713806 784.134644,281.576447 784.134583,280.576996 C784.133179,240.260895 784.130615,199.944778 784.143188,159.628677 C784.143677,158.008896 784.290039,156.389145 784.382507,154.478561 C795.482422,154.478561 806.226196,154.478561 817.544983,154.478561 C817.677185,157.459976 817.806824,160.383621 817.988892,164.488464 C831.166809,151.868561 847.068054,151.204773 863.096619,152.258514 C879.811462,153.357376 893.735779,160.445007 903.870422,175.012451 C905.561279,172.492523 906.481140,170.195587 908.153931,168.802795 C913.093384,164.690079 917.820496,159.769424 923.548706,157.262100 C939.684570,150.199158 956.781311,149.665848 973.351257,155.138443 C996.382324,162.745010 1009.377686,182.145844 1009.922974,208.638184 C1010.399475,231.785614 1010.107422,254.948868 1010.153687,278.105133 C1010.158569,280.559143 1010.154358,283.013123 1010.154358,286.097443 C999.328613,286.097443 989.055603,286.216370 978.797974,285.873779 C977.968750,285.846100 976.586304,282.657135 976.573120,280.928650 C976.416870,260.438599 976.477234,239.946915 976.466187,219.455673 C976.464722,216.790939 976.447083,214.123199 976.324829,211.462021 C975.574341,195.134460 966.160950,185.330841 949.919373,184.871567 C943.532043,184.690948 936.875488,185.256393 930.742004,186.940613 C921.606140,189.449265 916.469666,196.388504 914.909546,205.682571 C914.251404,209.602905 914.037659,213.636139 914.022095,217.619644 C913.938599,238.943542 913.919495,260.268280 914.043640,281.591766 C914.063354,284.977783 913.200989,286.299408 909.589172,286.214264 C900.117981,285.991119 890.638000,286.138977 880.312073,286.138977 C880.312073,283.839203 880.312439,281.923248 880.312134,280.007263 C880.308777,258.349854 880.385132,236.692001 880.265137,215.035233 C880.212036,205.452179 878.417175,196.427933 870.096008,190.140656 C855.067444,178.785507 827.206055,184.038605 820.463806,199.913208 C818.517090,204.496857 818.146912,209.931900 817.905396,215.017044 C817.502686,223.494186 817.786804,232.003967 817.781494,241.000000z"/>
  <path fill="#A6D793" d="M1483.700928,152.074738 C1495.242310,153.148300 1505.886353,155.463364 1514.715210,162.853302 C1516.692383,164.508179 1518.489258,166.378326 1520.808472,168.563126 C1520.808472,151.788116 1520.808472,135.400269 1520.808472,118.584366 C1531.967773,118.584366 1542.667603,118.584366 1553.732178,118.584366 C1553.732178,174.243607 1553.732178,229.775558 1553.732178,285.674377 C1542.987427,285.674377 1532.409912,285.674377 1521.259155,285.674377 C1521.259155,281.156952 1521.259155,276.603577 1521.259155,270.436218 C1512.828613,280.749542 1502.857544,285.548981 1491.446411,287.292297 C1473.721924,290.000031 1456.244263,288.980865 1439.636475,281.736572 C1425.472900,275.558472 1415.786133,264.870300 1411.198242,250.055176 C1405.297974,231.001892 1404.941650,211.654800 1410.455444,192.513672 C1416.741333,170.691772 1432.051758,158.194870 1453.974609,154.215408 C1463.542358,152.478683 1473.469360,152.720764 1483.700928,152.074738z M1460.811646,252.891541 C1469.882690,256.499451 1479.426392,256.777191 1488.820679,255.605225 C1496.519409,254.644791 1504.106201,252.480713 1510.069214,246.674164 C1520.442749,236.573059 1522.020386,224.256729 1519.496094,210.849747 C1517.767822,201.670700 1512.843384,194.638107 1504.743774,189.949066 C1496.236450,185.023956 1486.780273,184.018311 1477.283691,184.358093 C1469.502197,184.636520 1461.791992,186.030975 1454.992065,190.448502 C1443.363525,198.002853 1439.860229,209.459015 1440.246094,222.347015 C1440.662964,236.267563 1446.920044,246.810486 1460.811646,252.891541z"/>
  <path fill="#73C155" d="M525.760864,183.833862 C533.412231,168.564331 545.545227,159.417694 561.489807,155.153427 C575.868164,151.308014 590.486084,150.986008 605.092285,153.309418 C615.823608,155.016464 625.329895,159.479584 632.908081,169.400787 C632.908081,163.714401 632.908081,159.312744 632.908081,154.545319 C644.076782,154.545319 654.799011,154.545319 665.890503,154.545319 C665.890503,198.220444 665.890503,241.769608 665.890503,285.727753 C655.130737,285.727753 644.416870,285.727753 633.058228,285.727753 C633.058228,281.316223 633.058228,276.949402 633.058228,272.582550 C624.980347,280.760773 615.588928,285.365173 604.862244,287.119873 C586.787354,290.076599 568.901367,289.349487 551.924500,281.890167 C532.984680,273.568329 523.432617,257.908630 520.353271,238.136719 C517.496094,219.790894 518.106506,201.599976 525.760864,183.833862z M554.194702,233.066666 C557.311951,242.250580 563.290344,248.781891 572.233276,252.593765 C581.089722,256.368744 590.415588,256.588379 599.730835,255.746017 C613.350830,254.514435 624.901978,249.056274 629.903320,235.544891 C635.164673,221.331100 634.314819,207.221863 623.636780,195.313950 C612.164062,182.519821 582.419312,180.398605 566.748840,190.859680 C554.319824,199.156876 549.246643,215.642685 554.194702,233.066666z"/>
  <path fill="#A6D893" d="M1711.229248,208.767105 C1711.626709,214.293396 1711.958130,219.375168 1712.334595,225.147064 C1674.119873,225.147064 1636.746338,225.147064 1598.964966,225.147064 C1599.244385,233.676651 1602.161621,240.353607 1607.575806,245.892395 C1620.935059,259.559113 1658.306396,260.316650 1670.139282,244.291931 C1673.628906,239.566086 1677.508423,238.673660 1682.769409,238.860062 C1691.708374,239.176758 1700.666748,238.947174 1710.206909,238.947174 C1708.205322,249.518372 1704.145142,258.285461 1697.599365,265.807800 C1686.715820,278.315308 1672.599365,284.568695 1656.426147,287.108765 C1640.412964,289.623688 1624.666504,289.125488 1609.082275,284.578583 C1588.141235,278.468811 1574.055420,265.176910 1567.986084,244.162689 C1562.868408,226.443817 1563.268188,208.555099 1569.638428,191.206665 C1575.931885,174.067535 1588.219849,162.412308 1605.627686,157.076263 C1630.738525,149.378922 1655.844971,148.962112 1679.907593,161.003723 C1699.219727,170.668060 1708.824829,187.210327 1711.229248,208.767105z M1604.123047,199.863861 C1605.474609,200.225189 1606.825195,200.896820 1608.177856,200.901291 C1628.486572,200.968460 1648.795776,200.956253 1669.104736,200.926743 C1670.332764,200.924957 1671.560303,200.620895 1673.792236,200.323868 C1672.172241,198.251160 1671.226929,196.765533 1670.018799,195.539078 C1658.872314,184.225052 1644.800659,183.100708 1630.212158,184.635910 C1619.620605,185.750488 1610.234863,189.610428 1604.123047,199.863861z"/>
  <path fill="#74C156" d="M435.000000,118.268616 C461.303741,118.268814 487.107483,118.268814 513.332520,118.268814 C513.332520,128.681778 513.332520,138.751205 513.332520,149.650101 C511.574219,149.650101 509.653412,149.650085 507.732635,149.650085 C478.910034,149.650146 450.086639,149.756775 421.265625,149.542709 C416.601135,149.508072 415.254120,150.869492 415.440796,155.431046 C415.781128,163.747360 415.752625,172.095459 415.446594,180.414429 C415.295441,184.522797 416.804535,185.412399 420.616150,185.394608 C449.604736,185.259323 478.595612,185.464249 507.582184,185.189041 C512.823853,185.139282 514.111389,186.709518 513.864502,191.669846 C513.460876,199.778000 513.755371,207.920914 513.755371,216.712433 C511.533630,216.712433 509.760712,216.712418 507.987793,216.712418 C478.998596,216.712494 450.008728,216.807526 421.020844,216.612045 C416.588135,216.582153 415.385376,217.833496 415.437805,222.223175 C415.668732,241.546555 415.537445,260.874268 415.537384,280.200409 C415.537384,281.985474 415.537384,283.770538 415.537384,285.786835 C403.320770,285.786835 391.742065,285.786835 379.834961,285.786835 C379.834961,229.951797 379.834961,174.405411 379.834961,118.268417 C398.279663,118.268417 416.389832,118.268417 435.000000,118.268616z"/>
  <path fill="#A7D894" d="M1271.208740,288.816650 C1257.855103,287.702850 1245.488892,285.207184 1234.589844,277.437439 C1220.028564,267.056946 1211.898071,252.817886 1211.151001,235.360413 C1210.062012,209.916321 1210.471680,184.409607 1210.097656,158.931717 C1210.042725,155.193787 1211.339111,153.985321 1215.020874,154.063400 C1224.338745,154.260956 1233.663452,154.128937 1243.652222,154.128937 C1243.764160,156.297943 1243.946411,158.205856 1243.948242,160.113953 C1243.968994,180.945801 1244.285278,201.784103 1243.872803,222.607819 C1243.437866,244.569565 1255.738647,253.230789 1273.662354,255.606262 C1280.835938,256.557007 1288.710571,255.408081 1295.760376,253.420746 C1309.202637,249.631363 1315.916016,239.869354 1315.998779,225.890274 C1316.128052,204.059235 1316.040771,182.226883 1316.045166,160.395096 C1316.045532,158.585571 1316.045166,156.776047 1316.045166,154.128479 C1323.526611,154.128479 1330.619019,154.128479 1337.711426,154.128479 C1349.861450,154.128479 1349.861328,154.128479 1349.861328,166.136856 C1349.861328,203.800888 1349.861328,241.464935 1349.861328,279.128967 C1349.861328,281.110291 1349.861450,283.091614 1349.861450,286.012695 C1346.288086,286.012695 1343.049683,286.012939 1339.811401,286.012634 C1333.145264,286.012024 1326.477173,285.919098 1319.813721,286.054382 C1317.043335,286.110626 1315.844727,285.198090 1316.010376,282.332733 C1316.178833,279.417664 1316.047485,276.485260 1316.047485,272.178192 C1303.472412,286.284515 1287.881348,288.448547 1271.208740,288.816650z"/>
  <path fill="#1F6124" d="M192.424179,191.681671 C177.665329,181.148529 169.873428,166.632034 166.209427,149.663620 C158.942596,116.009987 170.162994,87.816010 192.292572,63.006687 C200.266510,54.067150 200.540421,54.046921 209.007706,62.753963 C230.176987,84.522705 242.525330,109.807404 238.945450,141.014755 C237.158615,156.591156 231.456665,170.616241 220.826645,182.397797 C219.824203,183.508865 218.919327,184.905563 217.653549,185.535675 C215.697510,186.509430 213.055054,187.939285 211.481598,187.290146 C210.120850,186.728760 209.045013,183.473602 209.213181,181.527588 C210.511536,166.503860 210.177567,151.593048 206.842819,136.849152 C205.952286,132.911850 204.484741,129.105057 203.282089,125.238350 C202.762238,125.246674 202.242386,125.254997 201.722519,125.263321 C201.090637,126.993355 200.219376,128.675705 199.863800,130.460770 C196.192001,148.894379 195.274307,167.402649 198.435379,186.027191 C199.445908,191.981110 198.017868,193.335281 192.424179,191.681671z"/>
  <path fill="#73C155" d="M706.897339,286.015869 C697.788940,286.015900 689.166626,286.015900 680.217957,286.015900 C680.217957,241.964432 680.217957,198.428467 680.217957,154.570557 C691.116699,154.570557 701.844727,154.570557 712.970825,154.570557 C712.970825,161.566742 712.970825,168.328842 712.970825,175.090942 C720.819885,165.855225 729.948181,158.767044 741.766052,156.813690 C753.157227,154.930862 764.776672,154.428787 776.803406,153.271240 C776.803406,163.913757 776.803406,173.128998 776.803406,183.114685 C771.342468,183.114685 765.910767,183.021164 760.483337,183.135803 C751.537598,183.324738 742.965332,185.212204 735.062622,189.517639 C720.844604,197.263733 713.228699,209.104187 713.199646,225.488129 C713.167480,243.644058 713.191345,261.800110 713.190796,279.956085 C713.190735,281.750000 713.190796,283.543945 713.190796,286.015869 C710.925110,286.015869 709.154236,286.015869 706.897339,286.015869z"/>
  <path fill="#A6D793" d="M1396.037109,189.000000 C1396.037109,221.453339 1396.037109,253.406677 1396.037109,286.002197 C1385.371460,286.002197 1375.264160,286.047363 1365.159302,285.911621 C1364.396606,285.901398 1363.514893,284.696106 1362.951172,283.867584 C1362.635376,283.403320 1362.843140,282.571594 1362.843140,281.905457 C1362.842651,240.405899 1362.843750,198.906357 1362.859619,157.406799 C1362.859985,156.588089 1363.040771,155.769424 1363.186768,154.532776 C1373.945435,154.532776 1384.650024,154.532776 1396.036987,154.532776 C1396.036987,165.952316 1396.036987,177.226151 1396.037109,189.000000z"/>
  <path fill="#A9D996" d="M1382.989014,118.100632 C1387.436523,118.100746 1391.386108,118.100746 1395.684570,118.100746 C1395.684570,125.509575 1395.684570,132.376526 1395.684570,139.924011 C1385.292114,139.924011 1375.050781,139.997253 1364.815063,139.792267 C1363.946899,139.774872 1362.435913,137.932510 1362.383179,136.879913 C1362.125977,131.741653 1362.029541,126.565346 1362.432617,121.446274 C1362.527222,120.244926 1364.722656,118.344551 1366.051025,118.255852 C1371.510132,117.891327 1377.007812,118.101654 1382.989014,118.100632z"/>
</svg>