<svg version="1.1" xmlns="http://www.w3.org/2000/svg" xmlns:xlink="http://www.w3.org/1999/xlink"
   viewBox="0 0 460 80" xml:space="preserve">
  <!-- Agrovia Logo - Dark version for light backgrounds -->
  
  <!-- Leaf Icon (from favicon design, scaled to fit) -->
  <g transform="translate(2, 4) scale(0.28)">
    <path fill="#216326" d="M163.140503,231.838501 C165.997330,234.148804 168.665207,236.134491 171.192429,238.285461 C172.963272,239.792679 175.839142,240.804916 174.163330,244.191238 C172.606552,247.337051 170.606155,249.024872 166.718124,248.522644 C157.287811,247.304504 151.252792,241.387970 145.983765,234.283035 C137.037613,222.219711 135.043869,208.039474 134.043610,193.673416 C133.166031,181.069519 131.580368,168.757248 123.617065,158.320343 C114.202599,145.981522 101.203812,139.202454 87.049950,134.278320 C86.746964,134.639343 86.443977,135.000381 86.140999,135.361404 C87.914810,137.178406 89.690582,138.993500 91.462105,140.812729 C101.440376,151.059723 111.554863,161.179565 121.313553,171.631592 C124.332756,174.865295 126.656532,178.853104 128.809433,182.764923 C131.640808,187.909500 130.655182,189.465347 124.775421,191.035416 C113.931389,193.931076 103.435219,192.716537 92.904976,189.194473 C72.355736,182.321274 59.817860,167.669693 52.277309,148.092163 C47.315254,135.209183 45.122353,121.797005 45.480030,107.986923 C45.640572,101.788246 46.616631,100.672798 52.756737,100.414421 C80.250870,99.257454 104.442299,106.917336 123.386055,127.714104 C130.446838,135.465530 134.710464,144.879379 137.351883,155.013214 C137.728455,156.457977 138.190079,157.882645 138.674332,159.295380 C138.762070,159.551315 139.151764,159.703766 139.196167,159.739288 C143.232651,152.552979 146.624008,144.861710 151.449036,138.210449 C172.642349,108.995567 202.073914,98.087234 237.315521,100.700211 C240.340897,100.924530 241.789246,102.205925 241.968338,105.296951 C243.293900,128.176102 239.869949,149.626434 225.355972,168.501709 C210.929291,187.263443 183.279572,197.457794 161.709915,191.090881 C156.458252,189.540695 155.927643,188.414154 157.899399,183.214233 C161.823532,172.865524 168.379471,164.317703 176.372879,156.874847 C183.195007,150.522598 190.297638,144.468369 197.369751,138.391220 C198.452621,137.460693 200.040405,137.117752 201.394684,136.503067 C200.736176,135.775650 200.077682,135.048248 199.419189,134.320831 C181.015182,138.348480 165.769638,148.006973 157.175903,164.891327 C145.556183,187.720917 145.269379,210.707413 163.140503,231.838501z"/>
    <path fill="#226327" d="M120.636749,46.709831 C126.792000,37.816776 132.732361,29.229525 138.808167,20.739180 C140.885605,17.836147 143.400375,17.906450 145.931564,20.389364 C165.508041,39.592525 176.492981,61.775551 170.200912,90.004112 C168.125931,99.313271 163.903824,107.538773 157.441101,114.483795 C155.900208,116.139687 153.249619,116.762947 151.109436,117.861168 C150.431732,115.611160 149.075348,113.326584 149.187881,111.116829 C149.852921,98.059441 149.594772,85.151680 145.047836,72.676338 C144.838623,72.102318 144.592270,71.541824 144.363220,70.975037 C143.839981,70.915985 143.316757,70.856941 142.793533,70.797890 C141.882919,76.143341 140.341339,81.472069 140.199158,86.837883 C139.940155,96.611786 140.560852,106.407036 140.688843,116.195023 C140.710876,117.878838 140.110519,119.570786 139.797668,121.258987 C138.014755,120.759277 135.875565,120.728752 134.504059,119.687263 C120.818619,109.294930 116.021530,94.527023 114.891396,78.222221 C114.143806,67.436409 116.028114,56.980042 120.636749,46.709831z"/>
  </g>

  <!-- AGROVIA Text as paths (font-independent rendering) -->
  <g transform="translate(82, 16)">
    <!-- A -->
    <path fill="#1B5E20" d="M0,48 L15.5,0 L22.5,0 L38,48 L30.5,48 L26.5,35 L11.5,35 L7.5,48 Z M13.5,29 L24.5,29 L19,10 Z"/>
    <!-- G -->
    <path fill="#1B5E20" d="M52,38 L52,26 L66,26 L66,42 C63,45 59,47 54,48.5 C49,48.5 45,47 42,44 C39,41 37.5,37 37.5,24 C37.5,18 39,13 42,9 C45,5 49,3 54,3 C58,3 61.5,4 64,6.5 C66.5,9 68,12 68.5,15.5 L61,17 C60.5,14.5 59.5,12.5 58,11 C56.5,9.5 55,9 53,9 C50,9 48,10 46.5,12.5 C45,15 44.5,18.5 44.5,24 C44.5,29.5 45,33.5 46.5,36 C48,38.5 50,40 53,40 C55,40 57,39.5 58.5,38 L58.5,32 L52,32 Z"/>
    <!-- R -->
    <path fill="#1B5E20" d="M76,48 L76,0 L93,0 C97,0 100,1 102,3.5 C104,6 105,9 105,12.5 C105,15.5 104,18 102.5,20 C101,22 99,23.5 96,24.5 L106,48 L98,48 L89,26 L83,26 L83,48 Z M83,6 L83,21 L92,21 C94.5,21 96.5,20 97.5,18.5 C98.5,17 99,15 99,12.5 C99,10 98.5,8 97.5,6.5 C96.5,5 94.5,6 92,6 Z"/>
    <!-- O -->
    <path fill="#1B5E20" d="M126,48.5 C121,48.5 117,47 114,43.5 C111,40 109.5,35 109.5,24 C109.5,18 111,13 114,9 C117,5 121,3 126,3 C131,3 135,5 138,9 C141,13 142.5,18 142.5,24 C142.5,30 141,35 138,39 C135,43 131,48.5 126,48.5 Z M126,9 C123,9 120.5,10.5 119,13 C117.5,15.5 116.5,19 116.5,24 C116.5,29 117.5,33 119,35.5 C120.5,38 123,40 126,40 C129,40 131.5,38 133,35.5 C134.5,33 135.5,29 135.5,24 C135.5,19 134.5,15.5 133,13 C131.5,10.5 129,9 126,9 Z"/>
    <!-- V -->
    <path fill="#1B5E20" d="M148,0 L163.5,40 L179,0 L187,0 L167,48 L160,48 L140,0 Z"/>
    <!-- I -->
    <path fill="#1B5E20" d="M192,0 L199,0 L199,48 L192,48 Z"/>
    <!-- A -->
    <path fill="#1B5E20" d="M208,48 L223.5,0 L230.5,0 L246,48 L238.5,48 L234.5,35 L219.5,35 L215.5,48 Z M221.5,29 L232.5,29 L227,10 Z"/>
  </g>
</svg>